<svg width="20.000000" height="23.000000" viewBox="0 0 20 23" fill="none" xmlns="http://www.w3.org/2000/svg" xmlns:xlink="http://www.w3.org/1999/xlink">
	<desc>
			Created with Pixso.
	</desc>
	<defs>
		<clipPath id="clip57_14">
			<rect id="фрейм 5" width="20.000000" height="23.000000" fill="white" fill-opacity="0"/>
		</clipPath>
	</defs>
	<rect id="фрейм 5" width="20.000000" height="23.000000" fill="#FFFFFF" fill-opacity="0"/>
	<g clip-path="url(#clip57_14)">
		<path id="path" d="M3.26 19.68L1.23 15.28C0.68 14.09 1.14 12.69 2.28 12.05L7.9 8.9C8.42 8.61 9.06 8.66 9.54 9.01L10.05 9.4C10.36 9.63 10.81 9.44 10.85 9.05L11.44 3.3C11.48 2.9 11.68 2.54 12 2.29L12.1 2.2C12.48 1.9 13.01 1.93 13.35 2.27C13.61 2.53 13.76 2.89 13.76 3.26L13.76 14.39C13.76 14.81 14.24 15.04 14.57 14.78L16.26 13.43C17.08 12.77 18.19 13.2 18.88 13.65C19.1 13.79 19.14 14.09 18.98 14.3L15.01 19.68C15.01 19.68 13.26 21.68 9.26 21.68C5.26 21.68 3.59 20.34 3.26 19.68Z" fill="#000000" fill-opacity="0" fill-rule="nonzero"/>
		<path id="path" d="M1.23 15.28C0.68 14.09 1.14 12.69 2.28 12.05L7.9 8.9C8.42 8.61 9.06 8.66 9.54 9.01L10.05 9.4C10.36 9.63 10.81 9.44 10.85 9.05L11.44 3.3C11.48 2.9 11.68 2.54 12 2.29L12.1 2.2C12.48 1.9 13.01 1.93 13.35 2.27C13.61 2.53 13.76 2.89 13.76 3.26L13.76 14.39C13.76 14.81 14.24 15.04 14.57 14.78L16.26 13.43C17.08 12.77 18.19 13.2 18.88 13.65C19.1 13.79 19.14 14.09 18.98 14.3L15.01 19.68C15.01 19.68 13.26 21.68 9.26 21.68C5.26 21.68 3.59 20.34 3.26 19.68L1.23 15.28Z" stroke="#000000" stroke-opacity="1.000000" stroke-width="1.500000"/>
	</g>
</svg>
