<svg width="24.000000" height="24.000000" viewBox="0 0 24 24" fill="none" xmlns="http://www.w3.org/2000/svg" >
	<desc>
			Created with Pixso.
	</desc>
	<defs>
		<clipPath id="clip12_4">
			<rect id="Видео" width="24.000000" height="24.000000" fill="white" fillOpacity="0"/>
		</clipPath>
	</defs>
	<g clip-path="url(#clip12_4)">
		<path id="path" d="M2 5C2 4.44 2.44 4 3 4L21 4C21.55 4 22 4.44 22 5L22 19C22 19.55 21.55 20 21 20L3 20C2.44 20 2 19.55 2 19L2 5Z" fill="#000000" fillOpacity="0" fillRule="nonzero"/>
		<path id="path" d="M3 4L21 4C21.55 4 22 4.44 22 5L22 19C22 19.55 21.55 20 21 20L3 20C2.44 20 2 19.55 2 19L2 5C2 4.44 2.44 4 3 4Z" stroke="#66FCF1" stroke-opacity="1.000000" stroke-width="1.500000" stroke-linejoin="round"/>
		<path id="path" d="M17.27 4.02L17.25 4C17.25 3.57 17.58 3.25 18 3.25C18.42 3.25 18.75 3.57 18.75 4L18.73 4.02L17.27 4.02ZM18.73 19.98L18.75 20C18.75 20.42 18.42 20.75 18 20.75C17.58 20.75 17.25 20.42 17.25 20L17.27 19.98L18.73 19.98Z" fill="#000000" fillOpacity="0" fillRule="nonzero"/>
		<path id="path" d="M18 4L18 20" stroke="#66FCF1" stroke-opacity="1.000000" stroke-width="1.500000" stroke-linejoin="round" stroke-linecap="round"/>
		<path id="path" d="M5.27 4.02L5.25 4C5.25 3.57 5.58 3.25 6 3.25C6.41 3.25 6.75 3.57 6.75 4L6.72 4.02L5.27 4.02ZM6.72 19.98L6.75 20C6.75 20.42 6.41 20.75 6 20.75C5.58 20.75 5.25 20.42 5.25 20L5.27 19.98L6.72 19.98Z" fill="#000000" fillOpacity="0" fillRule="nonzero"/>
		<path id="path" d="M6 4L6 20" stroke="#66FCF1" stroke-opacity="1.000000" stroke-width="1.500000" stroke-linejoin="round" stroke-linecap="round"/>
		<path id="path" d="M19.02 9.72L19 9.75C18.58 9.75 18.25 9.42 18.25 9C18.25 8.57 18.58 8.25 19 8.25L19.02 8.27L19.02 9.72ZM21.98 8.27L22 8.25C22.42 8.25 22.75 8.57 22.75 9C22.75 9.42 22.42 9.75 22 9.75L21.98 9.72L21.98 8.27Z" fill="#000000" fillOpacity="0" fillRule="nonzero"/>
		<path id="path" d="M19 9L22 9" stroke="#66FCF1" stroke-opacity="1.000000" stroke-width="1.500000" stroke-linejoin="round" stroke-linecap="round"/>
		<path id="path" d="M19.02 15.73L19 15.75C18.58 15.75 18.25 15.42 18.25 15C18.25 14.58 18.58 14.25 19 14.25L19.02 14.27L19.02 15.73ZM21.98 14.27L22 14.25C22.42 14.25 22.75 14.58 22.75 15C22.75 15.42 22.42 15.75 22 15.75L21.98 15.73L21.98 14.27Z" fill="#000000" fillOpacity="0" fillRule="nonzero"/>
		<path id="path" d="M19 15L22 15" stroke="#66FCF1" stroke-opacity="1.000000" stroke-width="1.500000" stroke-linejoin="round" stroke-linecap="round"/>
		<path id="path" d="M2.02 9.72L2 9.75C1.58 9.75 1.25 9.42 1.25 9C1.25 8.57 1.58 8.25 2 8.25L2.02 8.27L2.02 9.72ZM4.97 8.27L5 8.25C5.41 8.25 5.75 8.57 5.75 9C5.75 9.42 5.41 9.75 5 9.75L4.97 9.72L4.97 8.27Z" fill="#000000" fillOpacity="0" fillRule="nonzero"/>
		<path id="path" d="M2 9L5 9" stroke="#66FCF1" stroke-opacity="1.000000" stroke-width="1.500000" stroke-linejoin="round" stroke-linecap="round"/>
		<path id="path" d="M1.27 8.02L1.25 8C1.25 7.57 1.58 7.25 2 7.25C2.41 7.25 2.75 7.57 2.75 8L2.72 8.02L1.27 8.02ZM2.72 9.97L2.75 10C2.75 10.42 2.41 10.75 2 10.75C1.58 10.75 1.25 10.42 1.25 10L1.27 9.97L2.72 9.97Z" fill="#000000" fillOpacity="0" fillRule="nonzero"/>
		<path id="path" d="M2 8L2 10" stroke="#66FCF1" stroke-opacity="1.000000" stroke-width="1.500000" stroke-linejoin="round" stroke-linecap="round"/>
		<path id="path" d="M4.52 4.72L4.5 4.75C4.08 4.75 3.75 4.42 3.75 4C3.75 3.57 4.08 3.25 4.5 3.25L4.52 3.27L4.52 4.72ZM7.47 3.27L7.5 3.25C7.91 3.25 8.25 3.57 8.25 4C8.25 4.42 7.91 4.75 7.5 4.75L7.47 4.72L7.47 3.27Z" fill="#000000" fillOpacity="0" fillRule="nonzero"/>
		<path id="path" d="M4.5 4L7.5 4" stroke="#66FCF1" stroke-opacity="1.000000" stroke-width="1.500000" stroke-linejoin="round" stroke-linecap="round"/>
		<path id="path" d="M4.52 20.73L4.5 20.75C4.08 20.75 3.75 20.42 3.75 20C3.75 19.58 4.08 19.25 4.5 19.25L4.52 19.27L4.52 20.73ZM7.47 19.27L7.5 19.25C7.91 19.25 8.25 19.58 8.25 20C8.25 20.42 7.91 20.75 7.5 20.75L7.47 20.73L7.47 19.27Z" fill="#000000" fillOpacity="0" fillRule="nonzero"/>
		<path id="path" d="M4.5 20L7.5 20" stroke="#66FCF1" stroke-opacity="1.000000" stroke-width="1.500000" stroke-linejoin="round" stroke-linecap="round"/>
		<path id="path" d="M16.52 4.72L16.5 4.75C16.08 4.75 15.75 4.42 15.75 4C15.75 3.57 16.08 3.25 16.5 3.25L16.52 3.27L16.52 4.72ZM19.48 3.27L19.5 3.25C19.92 3.25 20.25 3.57 20.25 4C20.25 4.42 19.92 4.75 19.5 4.75L19.48 4.72L19.48 3.27Z" fill="#000000" fillOpacity="0" fillRule="nonzero"/>
		<path id="path" d="M16.5 4L19.5 4" stroke="#66FCF1" stroke-opacity="1.000000" stroke-width="1.500000" stroke-linejoin="round" stroke-linecap="round"/>
		<path id="path" d="M16.52 20.73L16.5 20.75C16.08 20.75 15.75 20.42 15.75 20C15.75 19.58 16.08 19.25 16.5 19.25L16.52 19.27L16.52 20.73ZM19.48 19.27L19.5 19.25C19.92 19.25 20.25 19.58 20.25 20C20.25 20.42 19.92 20.75 19.5 20.75L19.48 20.73L19.48 19.27Z" fill="#000000" fillOpacity="0" fillRule="nonzero"/>
		<path id="path" d="M16.5 20L19.5 20" stroke="#66FCF1" stroke-opacity="1.000000" stroke-width="1.500000" stroke-linejoin="round" stroke-linecap="round"/>
		<path id="path" d="M2.02 15.73L2 15.75C1.58 15.75 1.25 15.42 1.25 15C1.25 14.58 1.58 14.25 2 14.25L2.02 14.27L2.02 15.73ZM4.97 14.27L5 14.25C5.41 14.25 5.75 14.58 5.75 15C5.75 15.42 5.41 15.75 5 15.75L4.97 15.73L4.97 14.27Z" fill="#000000" fillOpacity="0" fillRule="nonzero"/>
		<path id="path" d="M2 15L5 15" stroke="#66FCF1" stroke-opacity="1.000000" stroke-width="1.500000" stroke-linejoin="round" stroke-linecap="round"/>
		<path id="path" d="M1.27 14.02L1.25 14C1.25 13.58 1.58 13.25 2 13.25C2.41 13.25 2.75 13.58 2.75 14L2.72 14.02L1.27 14.02ZM2.72 15.98L2.75 16C2.75 16.42 2.41 16.75 2 16.75C1.58 16.75 1.25 16.42 1.25 16L1.27 15.98L2.72 15.98Z" fill="#000000" fillOpacity="0" fillRule="nonzero"/>
		<path id="path" d="M2 14L2 16" stroke="#66FCF1" stroke-opacity="1.000000" stroke-width="1.500000" stroke-linejoin="round" stroke-linecap="round"/>
		<path id="path" d="M21.27 14.02L21.25 14C21.25 13.58 21.58 13.25 22 13.25C22.42 13.25 22.75 13.58 22.75 14L22.73 14.02L21.27 14.02ZM22.73 15.98L22.75 16C22.75 16.42 22.42 16.75 22 16.75C21.58 16.75 21.25 16.42 21.25 16L21.27 15.98L22.73 15.98Z" fill="#000000" fillOpacity="0" fillRule="nonzero"/>
		<path id="path" d="M22 14L22 16" stroke="#66FCF1" stroke-opacity="1.000000" stroke-width="1.500000" stroke-linejoin="round" stroke-linecap="round"/>
		<path id="path" d="M21.27 8.02L21.25 8C21.25 7.57 21.58 7.25 22 7.25C22.42 7.25 22.75 7.57 22.75 8L22.73 8.02L21.27 8.02ZM22.73 9.97L22.75 10C22.75 10.42 22.42 10.75 22 10.75C21.58 10.75 21.25 10.42 21.25 10L21.27 9.97L22.73 9.97Z" fill="#000000" fillOpacity="0" fillRule="nonzero"/>
		<path id="path" d="M22 8L22 10" stroke="#66FCF1" stroke-opacity="1.000000" stroke-width="1.500000" stroke-linejoin="round" stroke-linecap="round"/>
		<path id="path" d="M10.5 9.5L14.5 12L10.5 14.5L10.5 9.5Z" fill="#000000" fillOpacity="0" fillRule="nonzero"/>
		<path id="path" d="M14.5 12L10.5 14.5L10.5 9.5L14.5 12Z" stroke="#66FCF1" stroke-opacity="1.000000" stroke-width="1.500000" stroke-linejoin="round"/>
	</g>
</svg>
