<svg width="22.000000" height="22.000000" viewBox="0 0 22 22" fill="none" xmlns="http://www.w3.org/2000/svg" xmlns:xlink="http://www.w3.org/1999/xlink">
	<desc>
			Created with Pixso.
	</desc>
	<defs>
		<clipPath id="clip3_3">
			<rect id="Иконка личного кабинета" width="22.000000" height="22.000000" fill="white" fill-opacity="0"/>
		</clipPath>
	</defs>
	<g clip-path="url(#clip3_3)">
		<path id="path" d="M19.84 18.21C18.53 15.95 16.51 14.33 14.16 13.56C14.35 13.44 14.54 13.32 14.72 13.19C14.9 13.05 15.07 12.91 15.23 12.75C15.39 12.6 15.55 12.44 15.69 12.27C15.84 12.1 15.98 11.92 16.1 11.74C16.23 11.55 16.35 11.36 16.45 11.16C16.56 10.96 16.65 10.76 16.73 10.55C16.82 10.35 16.89 10.13 16.95 9.92C17.01 9.7 17.06 9.48 17.1 9.26C17.13 9.04 17.16 8.82 17.17 8.6C17.19 8.37 17.19 8.15 17.17 7.92C17.16 7.7 17.14 7.48 17.1 7.26C17.07 7.04 17.02 6.82 16.96 6.6C16.9 6.39 16.83 6.17 16.75 5.96C16.67 5.76 16.57 5.55 16.47 5.36C16.36 5.16 16.25 4.97 16.12 4.78C16 4.59 15.86 4.42 15.72 4.24C15.57 4.07 15.42 3.91 15.26 3.76C15.09 3.6 14.92 3.46 14.75 3.32C14.57 3.19 14.38 3.06 14.19 2.94C14 2.83 13.8 2.72 13.6 2.63C13.39 2.53 13.19 2.45 12.97 2.38C12.76 2.31 12.55 2.25 12.33 2.2C12.11 2.15 11.89 2.12 11.67 2.09C11.44 2.07 11.22 2.06 10.99 2.06C10.77 2.06 10.55 2.07 10.32 2.09C10.1 2.12 9.88 2.15 9.66 2.2C9.44 2.25 9.23 2.31 9.02 2.38C8.8 2.45 8.6 2.53 8.39 2.63C8.19 2.72 7.99 2.83 7.8 2.94C7.61 3.06 7.42 3.19 7.24 3.32C7.07 3.46 6.9 3.6 6.73 3.76C6.57 3.91 6.42 4.07 6.27 4.24C6.13 4.42 5.99 4.59 5.87 4.78C5.74 4.97 5.63 5.16 5.52 5.36C5.42 5.55 5.32 5.76 5.24 5.96C5.16 6.17 5.09 6.39 5.03 6.6C4.97 6.82 4.92 7.04 4.89 7.26C4.85 7.48 4.83 7.7 4.82 7.92C4.8 8.15 4.8 8.37 4.82 8.6C4.83 8.82 4.86 9.04 4.89 9.26C4.93 9.48 4.98 9.7 5.04 9.92C5.1 10.13 5.17 10.35 5.26 10.55C5.34 10.76 5.43 10.96 5.54 11.16C5.64 11.36 5.76 11.55 5.89 11.74C6.01 11.92 6.15 12.1 6.3 12.27C6.44 12.44 6.6 12.6 6.76 12.75C6.92 12.91 7.09 13.05 7.27 13.19C7.45 13.32 7.64 13.44 7.83 13.56C5.48 14.33 3.46 15.95 2.15 18.21C2.1 18.29 2.07 18.38 2.06 18.47C2.04 18.56 2.05 18.65 2.07 18.74C2.09 18.83 2.13 18.91 2.19 18.99C2.24 19.06 2.31 19.12 2.39 19.17C2.47 19.21 2.56 19.24 2.65 19.26C2.74 19.27 2.83 19.26 2.92 19.23C3.01 19.21 3.09 19.17 3.17 19.11C3.24 19.05 3.3 18.98 3.34 18.9C4.96 16.1 7.82 14.43 10.99 14.43C14.17 14.43 17.03 16.1 18.65 18.9C18.69 18.98 18.75 19.05 18.82 19.11C18.9 19.17 18.98 19.21 19.07 19.23C19.16 19.26 19.25 19.27 19.34 19.26C19.43 19.24 19.52 19.21 19.6 19.17C19.68 19.12 19.75 19.06 19.8 18.99C19.86 18.91 19.9 18.83 19.92 18.74C19.94 18.65 19.95 18.56 19.93 18.47C19.92 18.38 19.89 18.29 19.84 18.21ZM6.18 8.25C6.18 7.93 6.21 7.62 6.27 7.31C6.34 7 6.43 6.7 6.55 6.4C6.67 6.11 6.82 5.83 6.99 5.57C7.17 5.31 7.37 5.07 7.59 4.84C7.82 4.62 8.06 4.42 8.32 4.24C8.58 4.07 8.86 3.92 9.15 3.8C9.45 3.68 9.75 3.59 10.06 3.52C10.37 3.46 10.68 3.43 10.99 3.43C11.31 3.43 11.62 3.46 11.93 3.52C12.24 3.59 12.54 3.68 12.84 3.8C13.13 3.92 13.41 4.07 13.67 4.24C13.93 4.42 14.17 4.62 14.4 4.84C14.62 5.07 14.82 5.31 15 5.57C15.17 5.83 15.32 6.11 15.44 6.4C15.56 6.7 15.65 7 15.72 7.31C15.78 7.62 15.81 7.93 15.81 8.25C15.81 8.56 15.78 8.87 15.72 9.18C15.65 9.49 15.56 9.79 15.44 10.09C15.32 10.38 15.17 10.66 15 10.92C14.82 11.18 14.62 11.42 14.4 11.65C14.17 11.87 13.93 12.07 13.67 12.25C13.41 12.42 13.13 12.57 12.84 12.69C12.54 12.81 12.24 12.9 11.93 12.97C11.62 13.03 11.31 13.06 10.99 13.06C10.68 13.06 10.37 13.03 10.06 12.96C9.75 12.9 9.45 12.81 9.15 12.69C8.86 12.57 8.59 12.42 8.32 12.24C8.06 12.07 7.82 11.87 7.59 11.65C7.37 11.42 7.17 11.18 7 10.92C6.82 10.65 6.67 10.38 6.55 10.09C6.43 9.79 6.34 9.49 6.28 9.18C6.21 8.87 6.18 8.56 6.18 8.25Z" fill="#66FCF1" fill-opacity="1.000000" fill-rule="nonzero"/>
	</g>
</svg>
